<mxfile host="app.diagrams.net" modified="2023-09-27T15:48:00.734Z" agent="Mozilla/5.0 (Macintosh; Intel Mac OS X 10_15_7) AppleWebKit/605.1.15 (KHTML, like Gecko) Version/17.0 Safari/605.1.15" etag="ub6W7iwJNqwxNd8v4Bhp" version="21.8.2" type="github">
  <diagram name="Страница — 1" id="FgEMby7dzjqjjeOA83lz">
    <mxGraphModel dx="1397" dy="895" grid="1" gridSize="10" guides="1" tooltips="1" connect="1" arrows="1" fold="1" page="1" pageScale="1" pageWidth="1169" pageHeight="827" math="0" shadow="0">
      <root>
        <mxCell id="0" />
        <mxCell id="1" parent="0" />
        <mxCell id="O0R2ehQTQU66PhJIzlQV-1" value="" style="strokeWidth=2;html=1;shape=mxgraph.flowchart.database;whiteSpace=wrap;" vertex="1" parent="1">
          <mxGeometry x="100" y="126" width="100" height="120" as="geometry" />
        </mxCell>
        <mxCell id="O0R2ehQTQU66PhJIzlQV-5" value="" style="image;html=1;image=img/lib/clip_art/finance/Pie_Chart_128x128.png" vertex="1" parent="1">
          <mxGeometry x="650" y="250" width="100" height="100" as="geometry" />
        </mxCell>
        <mxCell id="O0R2ehQTQU66PhJIzlQV-6" value="Source" style="text;strokeColor=none;align=center;fillColor=none;html=1;verticalAlign=middle;whiteSpace=wrap;rounded=0;fontSize=40;" vertex="1" parent="1">
          <mxGeometry x="80" y="18" width="140" height="70" as="geometry" />
        </mxCell>
        <mxCell id="O0R2ehQTQU66PhJIzlQV-7" value="" style="strokeWidth=2;html=1;shape=mxgraph.flowchart.database;whiteSpace=wrap;" vertex="1" parent="1">
          <mxGeometry x="100" y="296" width="100" height="120" as="geometry" />
        </mxCell>
        <mxCell id="O0R2ehQTQU66PhJIzlQV-8" value="" style="strokeWidth=2;html=1;shape=mxgraph.flowchart.database;whiteSpace=wrap;" vertex="1" parent="1">
          <mxGeometry x="100" y="466" width="100" height="120" as="geometry" />
        </mxCell>
        <mxCell id="O0R2ehQTQU66PhJIzlQV-9" value="" style="edgeStyle=none;orthogonalLoop=1;jettySize=auto;html=1;rounded=0;" edge="1" parent="1">
          <mxGeometry width="80" relative="1" as="geometry">
            <mxPoint x="340" y="680" as="sourcePoint" />
            <mxPoint x="340" y="80" as="targetPoint" />
            <Array as="points" />
          </mxGeometry>
        </mxCell>
        <mxCell id="O0R2ehQTQU66PhJIzlQV-10" value="Google Analitycs" style="shape=image;html=1;verticalAlign=top;verticalLabelPosition=bottom;labelBackgroundColor=#ffffff;imageAspect=0;aspect=fixed;image=https://cdn0.iconfinder.com/data/icons/google-material-design-3-0/48/ic_settings_applications_48px-128.png;imageBackground=#e37300;fontSize=17;spacingTop=9;" vertex="1" parent="1">
          <mxGeometry x="100" y="636" width="100" height="100" as="geometry" />
        </mxCell>
      </root>
    </mxGraphModel>
  </diagram>
</mxfile>
